<svg width="33" height="29" viewBox="0 0 33 29" fill="none" xmlns="http://www.w3.org/2000/svg">
<path d="M10.6875 28.5C11.9992 28.5 13.0625 27.4367 13.0625 26.125C13.0625 24.8133 11.9992 23.75 10.6875 23.75C9.37582 23.75 8.3125 24.8133 8.3125 26.125C8.3125 27.4367 9.37582 28.5 10.6875 28.5Z" fill="#C3BDB0"/>
<path d="M27.3125 28.5C28.6242 28.5 29.6875 27.4367 29.6875 26.125C29.6875 24.8133 28.6242 23.75 27.3125 23.75C26.0008 23.75 24.9375 24.8133 24.9375 26.125C24.9375 27.4367 26.0008 28.5 27.3125 28.5Z" fill="#C3BDB0"/>
<path d="M10.0774 17.8125H29.4738L32.3238 3.5625H7.56215L6.93352 0H0V2.375H4.94148L8.50399 22.5625H29.6875V20.1875H10.496L10.0774 17.8125Z" fill="#C3BDB0"/>
</svg>
