<svg width="65" height="63" viewBox="0 0 65 63" fill="none" xmlns="http://www.w3.org/2000/svg">
<g filter="url(#filter0_d_21843_9)">
<path d="M62.5605 14.9977C58.7641 7.43234 56.2037 3.2175 54.9494 2.47102C53.9571 1.88398 52.2417 1.71945 49.0415 1.45641C46.6456 1.26039 43.6658 1.01562 42.3302 0.492578L41.0709 0L40.1995 1.03797C40.1334 1.11414 36.9789 4.72164 32.501 4.72164C27.9947 4.72164 24.829 1.07453 24.7975 1.03695L23.921 0.0101562L22.6687 0.493594C21.3332 1.01766 18.3544 1.26141 15.9595 1.45641C12.7583 1.71945 11.0419 1.88398 10.0527 2.47C8.7943 3.2175 6.23391 7.43234 2.43953 14.9977L2.03125 15.8102L2.38875 16.6481C5.74031 24.5223 13.6439 26.2539 13.9791 26.324L15.0272 26.5423L13.9567 55.0225L13.913 56.1925L14.9114 56.7765C24.3852 62.3228 40.6118 62.3228 50.0866 56.7765L51.0849 56.1925L51.0402 55.0225L49.9698 26.5423L51.0179 26.324C51.3531 26.2539 59.2566 24.5223 62.6092 16.6481L62.9688 15.8102L62.5605 14.9977ZM57.4478 17.9664C55.2754 20.7513 52.6033 22.292 49.4904 22.5601L47.8136 19.9012L49.137 55.0956C39.9364 60.4815 25.0636 60.4825 15.862 55.0956L17.1844 19.9012L15.5655 22.4961C12.4546 22.228 9.78047 20.6852 7.61109 17.9034C6.63285 16.633 5.83102 15.236 5.22742 13.7505L5.16344 13.8724C6.81586 10.6844 9.98563 4.75414 11.0124 4.14375C12.2627 3.40234 18.6316 3.445 22.1477 2.64469C23.09 3.6048 24.1252 4.46894 25.2383 5.22438C26.2684 5.92165 27.3765 6.496 28.5401 6.9357C29.9467 7.45774 31.3595 7.7218 32.7488 7.7218H32.7895C34.4703 7.71367 36.1207 7.32062 37.697 6.54875C39.4367 5.69766 41.1034 4.36922 42.6634 2.60609C46.1388 3.44805 52.714 3.38914 53.9866 4.14375C55.0093 4.75312 58.1628 10.6458 59.8203 13.842C59.219 15.3174 58.421 16.7048 57.4478 17.9664Z" fill="#C3BDB0"/>
</g>
<defs>
<filter id="filter0_d_21843_9" x="-1.96875" y="0" width="68.9375" height="68.9363" filterUnits="userSpaceOnUse" color-interpolation-filters="sRGB">
<feFlood flood-opacity="0" result="BackgroundImageFix"/>
<feColorMatrix in="SourceAlpha" type="matrix" values="0 0 0 0 0 0 0 0 0 0 0 0 0 0 0 0 0 0 127 0" result="hardAlpha"/>
<feOffset dy="4"/>
<feGaussianBlur stdDeviation="2"/>
<feComposite in2="hardAlpha" operator="out"/>
<feColorMatrix type="matrix" values="0 0 0 0 0 0 0 0 0 0 0 0 0 0 0 0 0 0 0.25 0"/>
<feBlend mode="normal" in2="BackgroundImageFix" result="effect1_dropShadow_21843_9"/>
<feBlend mode="normal" in="SourceGraphic" in2="effect1_dropShadow_21843_9" result="shape"/>
</filter>
</defs>
</svg>
